<svg width="42" height="42" viewBox="0 0 42 42" fill="none" xmlns="http://www.w3.org/2000/svg">
<g clip-path="url(#clip0_32_1982)">
<path d="M21.0004 40.1385C31.5701 40.1385 40.1385 31.5701 40.1385 21.0004C40.1385 10.4306 31.5701 1.86218 21.0004 1.86218C10.4306 1.86218 1.86218 10.4306 1.86218 21.0004C1.86218 31.5701 10.4306 40.1385 21.0004 40.1385Z" fill="#1B2430"/>
<path d="M20.9996 42C16.1415 41.9996 11.4337 40.3149 7.67852 37.2327C3.92331 34.1505 1.35296 29.8616 0.405419 25.0967C-0.542118 20.3319 0.19179 15.3859 2.48208 11.1015C4.77237 6.81712 8.47735 3.45937 12.9657 1.60039C17.4541 -0.258598 22.4483 -0.503801 27.0972 0.906553C31.7461 2.31691 35.7622 5.29556 38.4611 9.335C41.1601 13.3744 42.375 18.2247 41.8988 23.0595C41.4226 27.8942 39.2847 32.4143 35.8495 35.8495C33.9039 37.8057 31.5896 39.3565 29.0407 40.4122C26.4917 41.468 23.7586 42.0076 20.9996 42V42ZM20.9996 3.72437C11.4741 3.72437 3.72437 11.4711 3.72437 21.0003C3.72437 30.5296 11.4711 38.2756 20.9996 38.2756C30.5281 38.2756 38.2756 30.5288 38.2756 21.0003C38.2756 11.4719 30.5259 3.72437 20.9996 3.72437Z" fill="#D6D5A8"/>
<path d="M16.4499 12.0842L20.9996 18.6898L25.5762 12.0842H29.4764L23.0801 21.1248L29.2685 29.9143H25.3683L20.9996 23.5605L16.6577 29.9143H12.7315L18.9199 21.1248L12.5214 12.0842H16.4499Z" fill="#D6D5A8"/>
</g>
<defs>
<clipPath id="clip0_32_1982">
<rect width="42" height="42" fill="white"/>
</clipPath>
</defs>
</svg>
