<svg width="749" height="648" viewBox="0 0 749 648" fill="none" xmlns="http://www.w3.org/2000/svg">
<path fill-rule="evenodd" clip-rule="evenodd" d="M713.083 372.433L736.218 369.058C736.218 438.016 737.317 498.503 737.317 566.313H11.6986V404.29C24.2403 394.24 36.8358 384.272 49.4849 374.387C310.18 408.481 448.982 410.969 713.068 372.417" fill="#231916"/>
<path fill-rule="evenodd" clip-rule="evenodd" d="M368.598 430.824L578.02 141.184H159.171L368.598 430.824ZM686.003 98.4214L543.664 344.861C543.553 348.523 543.342 352.144 543.004 355.635C542.863 364.928 533.714 377.918 526.247 386.863L533.85 393.295C527.849 393.693 521.229 394.151 514.931 394.63L368.598 648L51.1928 98.4214H686.003Z" fill="#D6D5A8"/>
<path fill-rule="evenodd" clip-rule="evenodd" d="M673.599 105.569H63.5918L216.092 369.637L368.598 633.7L521.098 369.637L673.599 105.569ZM368.598 443.033L145.175 134.032H592.016L368.598 443.033Z" fill="#1B2430"/>
<path fill-rule="evenodd" clip-rule="evenodd" d="M122.443 150.88L368.598 577.117L614.748 150.88L368.598 491.326L122.443 150.88Z" fill="#D6D5A8"/>
<path fill-rule="evenodd" clip-rule="evenodd" d="M328.167 577.994H0V398.684L4.37814 395.159C16.9635 385.085 29.6093 375.092 42.3156 365.18L46.1698 362.157L50.9964 362.802C105.409 369.914 159.871 376.402 214.48 381.161L328.167 577.994ZM737.317 577.994H406.691L504.034 399.188L418.138 400.271L396.721 388.918C502.442 387.83 606.712 376.175 711.385 360.898L747.892 355.569V369.083C747.892 434.838 748.99 500.583 748.99 566.339V578.019L737.317 577.994Z" fill="#D6D5A8"/>
<path fill-rule="evenodd" clip-rule="evenodd" d="M713.083 372.433L736.218 369.058C736.218 438.016 737.317 498.503 737.317 566.313H11.6986V404.29C24.2403 394.24 36.8358 384.272 49.4849 374.387C310.18 408.481 448.982 410.969 713.068 372.417" fill="#1B2430"/>
<path fill-rule="evenodd" clip-rule="evenodd" d="M713.083 372.433L736.218 369.058C736.218 438.016 737.317 498.503 737.317 566.313H11.6986V404.29C24.2403 394.24 36.8358 384.272 49.4849 374.387C310.18 408.481 448.982 410.969 713.068 372.417" fill="#1B2430"/>
<path fill-rule="evenodd" clip-rule="evenodd" d="M379.213 404.754L362.371 399.959L336.384 398.483L340.923 404.754H379.213Z" fill="#FFCE4B"/>
<path fill-rule="evenodd" clip-rule="evenodd" d="M404.47 404.754L394.373 401.742L384.403 404.754H404.47Z" fill="#FFCE4B"/>
<path fill-rule="evenodd" clip-rule="evenodd" d="M173.394 295.697L177.424 302.658L169.948 322.231L186.317 347.828L201.431 344.232L209.543 358.269C187.974 361.85 161.453 358.158 155.801 333.77C154.098 326.416 155.12 318.71 157.347 311.608C160.179 302.542 164.496 295.279 169.142 288.338L173.394 295.697ZM464.222 134.016C473.13 143.334 479.412 154.904 482.521 169.692C502.674 181.629 517.546 203.081 525.436 226.104L519.597 234.163L514.438 251.288L507.384 231.463L493.529 194.574L472.964 180.204L469.815 166.146L463.119 149.782L457.733 136.686L455.668 138.454L453.219 134.027L464.222 134.016ZM289.7 105.559C289.459 103.592 289.471 101.604 289.735 99.6404L289.902 98.5474L290.365 97.54C293.086 91.6722 291.549 83.7846 289.766 77.8412C287.488 70.286 293.086 61.0082 298.285 54.672C297.278 28.0979 311.213 6.12744 338.772 0.964737L366.341 1.1511C378.266 3.77526 388.418 10.7613 395.784 22.4265C398.808 27.3531 401.219 32.6304 402.963 38.1413C408.042 37.8794 411.19 40.0048 414.904 43.0017C420.753 58.5906 426.184 74.4363 431.761 90.1309C433.222 95.893 432.411 101.01 429.595 105.533H410.389L412.526 104.748L418.818 98.3459L420.919 89.1185L411.684 64.257L408.536 56.8076L404.238 51.0405L401.719 66.1508L391.139 45.5L376.533 16.7752L364.572 11.5319L356.39 9.01351L347.12 8.29328L344.848 12.4738L340.198 8.60556L336.757 10.9073L331.764 14.7807L319.027 23.9073L312.624 51.2873L306.855 63.9749L299.615 70.2709L300.663 76.7734L301.716 87.8946V94.7093L299.615 101.217L301.001 105.569L289.7 105.559ZM206.097 218.287C213.971 197.792 230.28 178.496 247.611 165.652L247.415 154.068L249.777 151.741C255.874 145.737 264.776 139.622 273.936 134.037H303.102L294.905 137.099C294.905 137.099 288.501 145.702 287.559 147.067C286.617 148.432 268.041 153.358 267.406 153.675C266.771 153.992 261.955 162.172 261.955 162.172L259.748 174.547L251.042 188.081L240.341 192.055L224.31 209.785L214.656 228.245L213.936 229.101L206.097 218.287Z" fill="#D6D5A8"/>
<path fill-rule="evenodd" clip-rule="evenodd" d="M444.689 374.216L471.971 394.67C456.353 399.238 443.289 383.79 444.689 374.216Z" fill="#1B2430"/>
<path fill-rule="evenodd" clip-rule="evenodd" d="M428.335 318.207L485.836 367.718L482.269 371.078L428.335 318.207Z" fill="#1B2430"/>
<path fill-rule="evenodd" clip-rule="evenodd" d="M373.031 365.613C362.753 359.951 366.109 350.502 366.109 350.502L366.527 347.883L368.834 348.387C374.291 350.482 379.747 360.556 379.747 360.556C378.281 354.26 371.983 343.35 371.983 343.35L386.251 353.001L383.732 372.513L373.031 365.613Z" fill="#1B2430"/>
<path fill-rule="evenodd" clip-rule="evenodd" d="M361.489 368.025L383.314 379.252L382.161 394.463C375.107 392.257 367.998 381.035 367.998 381.035C368.417 390.056 377.022 399.168 377.022 399.168C372.926 396.146 366.633 392.56 366.633 392.56C358.763 387.941 361.489 368.01 361.489 368.01" fill="#1B2430"/>
<path fill-rule="evenodd" clip-rule="evenodd" d="M388.877 398.448C387.41 386.601 385.773 355.579 394.227 346.841C391.859 352.703 391.501 365.718 391.501 365.718C392.862 359.74 397.688 354.179 397.688 354.179C390.766 370.544 388.877 398.448 388.877 398.448Z" fill="#1B2430"/>
<path fill-rule="evenodd" clip-rule="evenodd" d="M281.599 247.404L283.171 259.679L288.309 244.886L291.146 246.986L297.333 240.912L307.092 246.453L310.452 242.886L313.178 244.458L307.827 252.849L315.697 259.044C315.697 259.044 304.26 256.32 293.025 258.939C293.025 258.939 299.635 260.828 303.202 262.822L284.526 263.134L277.472 263.638L281.599 247.404Z" fill="#1B2430"/>
<path fill-rule="evenodd" clip-rule="evenodd" d="M314.649 251.812L318.639 247.828L321.889 250.346L317.586 254.33L314.649 251.812Z" fill="#1B2430"/>
<path fill-rule="evenodd" clip-rule="evenodd" d="M318.846 243.103L325.456 236.918L330.6 239.542L324.091 246.251L318.846 243.103Z" fill="#1B2430"/>
<path fill-rule="evenodd" clip-rule="evenodd" d="M311.082 236.077L319.264 230.516L322.937 233.035L314.332 239.542L311.818 236.918L311.082 236.077Z" fill="#1B2430"/>
<path fill-rule="evenodd" clip-rule="evenodd" d="M255.259 283.488C265.335 279.292 284.848 275.097 284.848 275.097C280.128 278.768 272.676 288.943 272.676 288.943C297.232 269.435 325.577 273.525 325.577 273.525C328.413 276.88 325.894 283.599 325.894 283.599C323.481 282.969 318.76 279.72 318.76 279.72C324.635 298.598 340.162 303.635 340.162 303.635C352.123 307.518 362.723 318.428 362.723 318.428C367.968 322.412 366.497 324.301 366.497 324.301C359.993 327.323 346.248 315.804 346.248 315.804C344.505 314.209 342.425 313.026 340.162 312.344C321.486 308.984 305.958 300.804 305.958 300.804C311.938 311.503 333.668 317.799 333.668 317.799L337.759 322.206L333.457 324.931C320.972 322.83 307.016 312.238 307.016 312.238C312.16 322.815 327.169 330.068 327.169 330.068C324.962 332.38 318.04 331.327 318.04 331.327C309.54 327.761 300.305 317.224 300.305 317.224C302.457 323.732 309.958 330.39 309.958 330.39L303.036 330.602L301.409 329.131C296.603 323.879 291.178 319.23 285.251 315.285C270.978 311.508 254.191 300.442 254.191 300.442C255.501 304.637 261.431 311.563 261.431 311.563L251.778 315.547C247.163 308.203 249.47 289.114 249.47 289.114L250.478 285.387L255.259 283.488Z" fill="#1B2430"/>
<path fill-rule="evenodd" clip-rule="evenodd" d="M274.883 237.124L265.648 271.324L255.365 272.79C255.365 272.79 258.932 245.309 274.883 237.124Z" fill="#1B2430"/>
<path fill-rule="evenodd" clip-rule="evenodd" d="M331.905 273.732L360.844 293.033L358.138 299.842C362.436 304.879 387.728 325.026 387.728 325.026C386.256 327.545 381.113 340.968 381.113 340.968L368.316 332.581C377.969 327.968 367.686 315.169 367.686 315.169C363.066 307.302 342.818 297.037 342.818 297.037C333.376 293.889 329.804 286.863 329.804 286.863C333.477 283.715 331.905 273.767 331.905 273.767" fill="#1B2430"/>
<path fill-rule="evenodd" clip-rule="evenodd" d="M325.874 255.171L338.676 238.384L362.809 259.991L353.786 268.594L334.061 254.542L348.959 275.52L325.874 255.171Z" fill="#1B2430"/>
<path fill-rule="evenodd" clip-rule="evenodd" d="M364.875 295.234L392.892 315.381L389.325 321.36C383.027 317.481 362.461 299.646 362.461 299.646L364.875 295.234Z" fill="#1B2430"/>
<path fill-rule="evenodd" clip-rule="evenodd" d="M368.059 265.028L373.092 268.806L363.862 286.006L356.516 280.552L368.059 265.028Z" fill="#1B2430"/>
<path fill-rule="evenodd" clip-rule="evenodd" d="M586.756 462.848L593.577 456.557L608.898 470.615L602.077 476.487L586.756 462.848Z" fill="#1B2430"/>
<path fill-rule="evenodd" clip-rule="evenodd" d="M577.208 454.356C577.208 454.356 577.944 448.06 580.881 446.695L590.222 454.144L585.184 459.806L577.208 454.356Z" fill="#1B2430"/>
<path fill-rule="evenodd" clip-rule="evenodd" d="M422.249 324.714L479.962 375.691L475.135 383.247C422.461 345.063 421.413 333.312 421.413 333.312L443.863 351.777C436.306 345.481 422.249 324.714 422.249 324.714" fill="#1B2430"/>
<path fill-rule="evenodd" clip-rule="evenodd" d="M432.94 391.21C426.769 385.04 430.195 372.181 433.676 365.406L441.022 371.173C437.999 373.188 438.503 377.364 438.503 377.364C430.633 381.453 432.961 391.21 432.961 391.21" fill="#1B2430"/>
<path fill-rule="evenodd" clip-rule="evenodd" d="M397.476 396.765C395.139 378.255 397.255 356.869 409.86 342.64C402.091 360.893 404.611 387.744 404.611 387.744C404.611 372.433 420.35 352.714 420.35 352.714C412.792 369.073 414.893 387.12 414.893 387.12C415.317 375.369 424.128 358.586 424.128 358.586C418.128 385.498 429.167 402.85 429.167 402.85C414.269 402.85 397.482 396.765 397.482 396.765" fill="#1B2430"/>
<path fill-rule="evenodd" clip-rule="evenodd" d="M397.648 333.211C399.537 322.09 409.19 305.937 409.19 305.937L413.594 309.714L396.615 340.973V337.719L397.648 333.211Z" fill="#1B2430"/>
<path fill-rule="evenodd" clip-rule="evenodd" d="M379.702 278.033L404.676 300.9L398.484 308.138L377.813 292.615L392.297 298.699L375.611 282.022L379.702 278.033Z" fill="#1B2430"/>
<path fill-rule="evenodd" clip-rule="evenodd" d="M349.957 236.807L359.086 225.897C360.753 231.982 358.713 236.379 353.942 239.744L349.957 236.807Z" fill="#1B2430"/>
<path fill-rule="evenodd" clip-rule="evenodd" d="M223.413 230.153L213.971 245.047L205.89 246.095L214.284 232.037L223.413 230.153Z" fill="#1B2430"/>
<path fill-rule="evenodd" clip-rule="evenodd" d="M409.961 100.96C409.961 100.96 401.774 100.119 399.885 79.7702C399.885 79.7702 403.663 85.8547 407.86 87.5319C407.86 87.5319 401.774 72.8447 403.245 61.7285L404.082 58.9985L405.341 56.2737C405.341 56.2737 411.216 75.9927 414.788 83.1247C414.788 83.1247 418.355 98.0236 409.961 100.96Z" fill="#1B2430"/>
<path fill-rule="evenodd" clip-rule="evenodd" d="M360.552 243.833L423.297 298.593L418.471 300.689L354.889 246.775L360.552 243.833Z" fill="#1B2430"/>
<path fill-rule="evenodd" clip-rule="evenodd" d="M464.847 294.302C464.847 294.302 469.674 263.462 467.573 248.356C468.86 237.355 471.981 226.646 476.808 216.675C476.808 216.675 474.712 237.029 479.115 261.361C479.115 261.361 480.163 222.341 492.547 210.173C492.547 210.173 514.997 246.05 502.2 285.911C502.2 285.911 513.113 273.112 515.42 265.139C515.42 265.139 537.034 313.603 529.058 356.808C529.058 356.808 525.492 365.411 522.136 369.184L527.381 350.936C527.381 350.936 524.232 339.814 512.483 349.883L506.815 361.84C506.815 361.84 504.508 358.068 500.522 357.856C500.522 357.856 509.117 317.783 481.634 284.012C481.634 284.012 486.043 311.281 481.216 323.45C478.319 308.491 478.248 302.295 464.792 296.705L464.847 294.302Z" fill="#1B2430"/>
<path fill-rule="evenodd" clip-rule="evenodd" d="M491.383 371.279C491.383 371.279 496.21 362.258 503.656 363.306C503.656 363.306 505.44 363.81 505.964 364.983C505.964 364.983 502.82 372.745 501.873 374.427C501.873 374.427 510.896 369.39 519.083 354.915C519.083 354.915 516.564 372.327 509.848 386.173L507.435 389.633L510.266 388.898L575.319 443.235L571.752 448.271L537.336 418.902L538.389 416.172L532.303 417.431L496.834 388.49L500.406 381.776L491.383 371.279Z" fill="#1B2430"/>
<path fill-rule="evenodd" clip-rule="evenodd" d="M426.758 302.472L492.759 358.904L490.028 361.634L422.249 304.36L426.758 302.472Z" fill="#1B2430"/>
<path fill-rule="evenodd" clip-rule="evenodd" d="M439.943 302.26C460.721 297.888 468.736 306.763 468.273 329.534L439.943 302.26Z" fill="#1B2430"/>
<path fill-rule="evenodd" clip-rule="evenodd" d="M340.691 211.633C349.82 213.371 362.925 212.263 371.384 209.619C383.778 216.892 385.44 240.247 385.44 240.247C388.907 233.85 388.463 220.946 388.463 220.946C396.857 241.3 386.786 257.871 386.786 257.871L367.741 235.11L368.159 232.798C369.631 221.264 358.718 218.534 358.718 218.534L347.387 227.348L340.691 211.633Z" fill="#1B2430"/>
<path fill-rule="evenodd" clip-rule="evenodd" d="M334.212 171.198C334.212 171.198 359.403 186.097 393.391 169.309C393.391 169.309 381.43 183.785 364.849 190.499C364.849 190.499 378.911 189.451 387.934 182.737C387.934 182.737 381.218 202.668 355.614 202.456C335.93 199.6 336.883 187.235 334.212 171.198" fill="#1B2430"/>
<path fill-rule="evenodd" clip-rule="evenodd" d="M224.249 256.375C224.249 256.375 237.575 259.211 246.921 264.137L244.613 275.469C244.613 275.469 221.216 278.93 204.217 286.48C204.217 286.48 229.816 287.533 239.893 291.305C239.893 291.305 239.681 310.4 243.666 317.532C243.666 317.532 222.788 325.188 198.131 321.621C198.131 321.621 205.688 328.441 224.783 330.537C224.783 330.537 184.251 347.919 175.993 327.076C175.993 327.076 174.734 322.251 177.041 313.648C177.041 313.648 178.301 323.51 185.223 328.124C185.223 328.124 180.397 313.437 189.213 294.977L200.751 269.38L205.477 261.518C205.477 261.518 221.423 257.951 236.744 268.02C236.744 268.02 230.234 259.629 224.254 256.375" fill="#1B2430"/>
<path fill-rule="evenodd" clip-rule="evenodd" d="M255.833 228.789L245.132 252.497C245.132 252.497 236.739 246.83 222.461 244.73L233.378 221.656L222.889 223.439C227.277 211.054 230.149 206.657 239.57 198.472C239.57 198.472 237.368 225.958 239.888 237.497C239.888 237.497 246.498 231.095 255.833 228.789Z" fill="#1B2430"/>
<path fill-rule="evenodd" clip-rule="evenodd" d="M356.038 166.478C340.717 139.834 374.084 132.49 374.084 132.49L376.392 131.987L380.589 130.833C366.739 138.177 362.33 157.266 362.33 157.266C372.195 145.309 388.353 138.388 388.353 138.388C394.227 146.78 392.549 157.896 392.549 157.896C388.353 165.028 369.258 169.647 369.258 169.647C377.228 166.705 386.045 152.441 386.045 152.441C377.233 160.832 356.038 166.499 356.038 166.499" fill="#1B2430"/>
<path fill-rule="evenodd" clip-rule="evenodd" d="M263.391 179.488L316.901 220.815C316.901 220.815 304.517 227.529 299.484 235.291L292.768 230.884C292.768 230.884 299.691 226.059 305.364 224.17C305.364 224.17 291.514 222.286 278.294 226.9L280.601 222.493C280.601 222.493 286.057 218.926 295.499 218.715C295.499 218.715 280.385 212.212 260.035 217.038L255.209 219.138L251.853 220.397C251.853 220.397 250.382 198.16 263.396 179.488" fill="#1B2430"/>
<path fill-rule="evenodd" clip-rule="evenodd" d="M322.987 97.3637C318.161 90.4432 315.223 77.3274 315.223 77.3274L314.72 72.6079L316.186 75.4386C323.531 90.8612 345.463 80.5812 345.463 80.5812C352.849 79.73 357.63 73.8671 357.63 73.8671C358.683 75.5444 367.389 80.1631 367.389 80.1631C377.148 77.957 386.695 72.4014 386.695 72.4014C391.416 69.9838 392.046 63.2748 392.046 63.2748C395.613 75.363 388.69 86.444 388.69 86.444H382.916L341.79 90.01L322.987 97.3637Z" fill="#1B2430"/>
<path d="M45.54 529.646V436.082H110.633V452.029H64.3728V476.13H102.854V491.019H64.3728V529.631L45.54 529.646Z" fill="#D6D5A8"/>
<path d="M116.226 529.646V436.082H159.216C163.431 436.052 167.601 436.951 171.429 438.717C175.135 440.428 178.472 442.846 181.253 445.834C183.985 448.753 186.159 452.149 187.667 455.852C189.15 459.446 189.915 463.296 189.919 467.184C189.933 471.062 189.215 474.906 187.803 478.517C186.426 482.074 184.364 485.326 181.732 488.087C179.117 490.84 175.956 493.017 172.452 494.479L194.584 529.646H173.842L153.891 498.292H135.058V529.656L116.226 529.646ZM135.058 482.335H158.667C160.928 482.37 163.136 481.652 164.945 480.295C166.826 478.856 168.325 476.978 169.313 474.825C170.429 472.435 170.989 469.822 170.95 467.184C170.997 464.471 170.339 461.791 169.041 459.408C167.887 457.262 166.253 455.412 164.264 454.003C162.427 452.711 160.233 452.021 157.987 452.029H135.058V482.335Z" fill="#D6D5A8"/>
<path d="M266.63 513.699V529.646H199.335V436.082H265.381V452.029H218.168V474.563H258.831V489.321H218.168V513.699H266.63Z" fill="#D6D5A8"/>
<path d="M340.984 513.699V529.646H273.709V436.082H339.754V452.029H292.542V474.563H333.205V489.321H292.542V513.699H340.984Z" fill="#D6D5A8"/>
<path d="M374.029 499.939H362.225V529.656H355.07V499.939H343.165V493.839H374.029V499.939Z" fill="#D6D5A8"/>
<path d="M390.74 529.897C388.206 529.938 385.693 529.422 383.38 528.386C381.226 527.411 379.29 526.013 377.687 524.276C376.1 522.573 374.842 520.59 373.978 518.429C373.117 516.306 372.674 514.036 372.673 511.745C372.664 509.398 373.134 507.074 374.054 504.915C374.963 502.766 376.256 500.8 377.868 499.113C379.507 497.403 381.467 496.034 383.637 495.083C385.924 494.079 388.399 493.573 390.897 493.597C393.429 493.565 395.937 494.098 398.237 495.159C400.387 496.159 402.313 497.583 403.9 499.344C405.448 501.065 406.678 503.046 407.533 505.197C408.378 507.313 408.813 509.572 408.812 511.851C408.819 514.178 408.365 516.484 407.477 518.635C406.6 520.786 405.325 522.753 403.719 524.433C402.093 526.146 400.14 527.516 397.975 528.462C395.691 529.443 393.226 529.932 390.74 529.897ZM379.989 511.74C379.985 513.266 380.232 514.782 380.72 516.228C381.183 517.632 381.9 518.94 382.835 520.086C383.758 521.215 384.917 522.129 386.231 522.76C387.659 523.435 389.222 523.771 390.801 523.743C392.408 523.788 394.002 523.443 395.446 522.735C396.748 522.062 397.896 521.125 398.817 519.985C399.743 518.832 400.442 517.515 400.877 516.102C401.324 514.699 401.553 513.237 401.557 511.765C401.56 510.248 401.313 508.74 400.827 507.302C400.354 505.904 399.628 504.605 398.686 503.469C397.753 502.352 396.596 501.442 395.29 500.8C393.878 500.116 392.325 499.771 390.756 499.793C389.171 499.765 387.603 500.121 386.186 500.83C384.878 501.492 383.721 502.418 382.79 503.55C381.864 504.688 381.156 505.987 380.704 507.383C380.234 508.788 379.992 510.259 379.989 511.74V511.74Z" fill="#D6D5A8"/>
<path d="M417.71 529.646V436.082H458.786C463.046 436.042 467.262 436.942 471.135 438.717C474.828 440.418 478.145 442.837 480.893 445.834C483.587 448.769 485.736 452.161 487.237 455.852C488.72 459.446 489.485 463.296 489.489 467.184C489.482 472.393 488.218 477.523 485.806 482.139C483.403 486.869 479.804 490.889 475.367 493.799C470.863 496.794 465.604 498.292 459.592 498.292H436.532V529.656L417.71 529.646ZM436.543 482.335H458.373C460.605 482.375 462.795 481.732 464.651 480.492C466.56 479.154 468.052 477.303 468.953 475.153C470.035 472.638 470.569 469.922 470.52 467.184C470.52 463.937 469.905 461.191 468.676 458.944C467.57 456.837 465.921 455.064 463.9 453.807C461.992 452.636 459.795 452.02 457.557 452.029H436.543V482.335Z" fill="#D6D5A8"/>
<path d="M495.081 529.646V436.082H513.914V513.699H563.313V529.646H495.081Z" fill="#D6D5A8"/>
<path d="M593.472 436.082H612.576L648.196 529.646H628.819L620.758 506.32H585.194L577.097 529.646H557.721L593.472 436.082ZM616.355 493.537L603.024 454.925L589.627 493.537H616.355Z" fill="#D6D5A8"/>
<path d="M644.785 436.082L668.666 480.099L692.955 436.082H713.289L678.083 496.962V529.646H659.386V496.7L624.451 436.082H644.785Z" fill="#D6D5A8"/>
<path fill-rule="evenodd" clip-rule="evenodd" d="M255.209 157.241L255.42 169.621C255.42 169.621 220.581 192.7 210.928 228.36C210.928 228.36 201.275 235.916 194.353 260.46C194.353 260.46 187.425 278.713 179.031 287.522C179.031 287.522 140.212 335.986 182.392 350.251C182.392 350.251 200.857 356.965 230.446 343.748C230.446 343.748 256.216 319.844 288.315 332.974C295.746 335.16 301.943 338.671 303.782 343.798C303.782 343.798 305.092 349.299 305.993 356.446L319.188 374.699C318.684 362.107 322.881 348.201 322.881 348.201L323.718 352.819L325.396 359.322C328.756 373.379 338.616 380.723 338.616 380.723C331.275 367.295 335.048 346.105 335.048 346.105C339.039 363.935 345.331 368.771 345.331 368.771C336.938 343.385 347.221 325.137 347.221 325.137L362.119 333.735C349.76 366.877 357.317 397.083 357.317 397.083L333.275 394.146L340.948 404.754C369.258 406.335 406.691 404.527 434.991 405.061L435.444 404.754C434.406 403.039 433.848 401.077 433.827 399.072L443.636 404.754H453.803C444.86 402.281 438.644 393.093 439.561 386.802L463.391 404.673L463.079 404.754C464.983 404.556 466.903 404.556 468.807 404.754H473.069C474.581 402.809 476.118 400.664 477.674 398.296L482.712 399.974L490.476 395.36L534.52 430.799L539.558 428.91L582.161 464.575L582.579 468.983L600.837 485.136L617.831 470.237L582.367 439.402L580.271 441.708L516.287 387.583C516.287 387.583 536.223 365.97 536.011 355.272C536.011 355.272 541.049 304.713 523.839 255.625C523.839 255.625 519.642 198.14 475.573 174.643C475.573 174.643 472.006 150.305 457.738 136.671C457.738 136.671 480.611 191.632 428.99 234.853C428.99 234.853 449.974 224.991 459.416 215.758C459.416 215.758 451.234 235.064 438.22 242.615C438.22 242.615 449.345 242.403 457.527 236.112L444.725 290.006L423.741 271.546L443.677 276.789L417.654 260.218C417.654 260.218 420.385 242.383 416.395 220.775C416.395 220.775 414.511 236.298 412.621 243.642C412.621 243.642 411.362 222.452 405.482 210.495C405.482 210.495 405.694 233.16 402.338 244.483C402.338 244.483 399.608 215.532 394.363 206.929C394.363 206.929 410.52 184.903 414.088 156.561C414.088 156.561 413.881 184.263 409.684 195.793C409.684 195.793 427.731 168.725 424.159 131.176C424.159 131.176 440.739 128.657 452.494 132.641C452.494 132.641 434.86 119.636 406.742 111.875C406.742 111.875 427.937 106.42 424.375 92.3622C424.375 92.3622 410.319 52.7127 408.43 47.6759C408.43 47.6759 401.92 42.4326 397.724 49.7762C397.724 49.7762 392.06 1.9268 347.15 8.23789C347.15 8.23789 381.359 10.7562 385.974 47.6759C372.316 50.3907 368.603 45.9785 325.516 51.242C325.516 51.242 324.68 33.2001 332.232 24.1793C332.232 24.1793 320.478 32.7821 317.118 49.5647C316.498 30.0723 324.549 18.4827 340.203 8.55017C315.908 13.0833 304.129 32.6814 306.205 57.3264C306.205 57.3264 295.292 69.2837 297.182 75.5797C299.071 81.8756 301.378 92.1507 297.393 100.764C297.393 100.764 295.292 114.61 310.407 122.583C310.407 122.583 268.645 143.979 255.214 157.196" fill="#1B2430"/>
<path fill-rule="evenodd" clip-rule="evenodd" d="M306.084 66.5537L308.392 85.6431L303.777 87.3204L301.469 71.1674L306.084 66.5537Z" fill="#1B2430"/>
<path fill-rule="evenodd" clip-rule="evenodd" d="M345.105 128.879C333.905 125.011 327.602 114.272 327.602 101.02C327.602 101.02 329.068 125.57 354.879 120.951C354.879 120.951 381.324 119.38 383.002 102.909C383.002 102.909 384.261 114.867 375.445 121.163C375.445 121.163 385.939 116.549 389.295 105.01C386.544 123.142 361.781 134.636 345.105 128.879" fill="#1B2430"/>
<path fill-rule="evenodd" clip-rule="evenodd" d="M313.435 133.855C310.916 151.66 307.087 174.245 317.007 190.267C315.747 181.77 320.151 164.882 320.151 164.882C320.574 181.246 328.126 209.775 328.126 209.775C312.18 205.161 295.378 174.95 295.378 174.95C297.061 188.378 307.132 203.061 307.132 203.061C291.181 193.41 268.096 165.718 268.096 165.718L269.356 158.163L313.435 133.855Z" fill="#1B2430"/>
<path fill-rule="evenodd" clip-rule="evenodd" d="M307.762 111.87L301.258 105.156C301.258 105.156 301.887 94.4575 308.815 91.098L315.531 115.224L308.185 100.537L307.762 111.87Z" fill="#1B2430"/>
<path fill-rule="evenodd" clip-rule="evenodd" d="M457.713 136.686C456.17 135.106 454.403 133.762 452.468 132.697C440.714 128.713 424.134 131.231 424.134 131.231C427.706 168.78 409.659 195.848 409.659 195.848C413.856 184.309 414.062 156.616 414.062 156.616C410.495 184.938 394.338 206.984 394.338 206.984C399.583 215.587 402.313 244.539 402.313 244.539C405.669 233.211 405.457 210.55 405.457 210.55C411.336 222.508 412.596 243.697 412.596 243.697C414.486 236.354 416.37 220.83 416.37 220.83C420.36 242.438 417.629 260.273 417.629 260.273L443.651 276.844L423.715 271.601L444.699 290.061L457.501 236.167C449.319 242.458 438.195 242.67 438.195 242.67C451.209 235.115 459.391 215.814 459.391 215.814C449.949 225.046 428.965 234.908 428.965 234.908C480.586 191.688 457.713 136.726 457.713 136.726" fill="#51557E"/>
<path fill-rule="evenodd" clip-rule="evenodd" d="M325.506 51.2973C354.884 41.8584 385.964 47.7312 385.964 47.7312C381.349 10.8066 347.14 8.29327 347.14 8.29327C344.831 8.02316 342.493 8.12861 340.218 8.60555C324.564 18.5381 316.513 30.1277 317.133 49.62C320.488 32.8375 332.248 24.2347 332.248 24.2347C324.69 33.2556 325.532 51.2973 325.532 51.2973" fill="#BFBFBF"/>
<path fill-rule="evenodd" clip-rule="evenodd" d="M385.42 54.4453C370.835 49.464 360.199 45.6158 350.793 57.7998L346.596 58.641C333.935 51.4081 326.393 55.9715 315.959 66.4027C322.428 77.7254 321.314 79.1256 330.701 78.4406C341.351 77.6599 342.535 74.7234 346.072 62.9424C346.318 62.1987 346.777 61.5436 347.392 61.0591C348.008 60.5745 348.752 60.2818 349.533 60.2175C349.533 60.2175 358.768 70.7041 366.638 73.0109C366.638 73.0109 386.362 71.8575 386.468 63.3604L385.42 54.4453Z" fill="#BFBFBF"/>
<path fill-rule="evenodd" clip-rule="evenodd" d="M403.245 61.7285C401.774 72.8447 407.86 87.5319 407.86 87.5319C403.663 85.8547 399.885 79.7702 399.885 79.7702C401.774 100.119 409.961 100.96 409.961 100.96C418.355 98.0236 414.788 83.1247 414.788 83.1247C411.216 75.9927 405.341 56.2737 405.341 56.2737L404.082 58.9985L403.245 61.7285Z" fill="#404040"/>
<path fill-rule="evenodd" clip-rule="evenodd" d="M315.526 115.224L308.81 91.098C301.887 94.4575 301.253 105.156 301.253 105.156L307.757 111.87L308.175 100.537L315.526 115.224Z" fill="#404040"/>
<path fill-rule="evenodd" clip-rule="evenodd" d="M303.777 87.3204L308.392 85.6431L306.084 66.5537L301.469 71.1674L303.777 87.3204Z" fill="#404040"/>
<path fill-rule="evenodd" clip-rule="evenodd" d="M354.879 120.951C329.068 125.57 327.602 101.02 327.602 101.02C327.602 114.257 333.905 125.011 345.105 128.879C361.781 134.636 386.544 123.122 389.295 105.01C385.939 116.549 375.445 121.163 375.445 121.163C384.261 114.867 383.002 102.909 383.002 102.909C381.324 119.38 354.879 120.951 354.879 120.951" fill="#51557E"/>
<path fill-rule="evenodd" clip-rule="evenodd" d="M374.084 132.49C374.084 132.49 340.717 139.834 356.038 166.478C356.038 166.478 377.233 160.812 386.045 152.421C386.045 152.421 377.228 166.685 369.258 169.626C369.258 169.626 388.353 165.008 392.549 157.876C392.549 157.876 394.227 146.759 388.353 138.368C388.353 138.368 372.195 145.289 362.33 157.246C362.33 157.246 366.739 138.157 380.589 130.813L376.392 131.966L374.084 132.49Z" fill="#51557E"/>
<path fill-rule="evenodd" clip-rule="evenodd" d="M393.391 169.309C359.393 186.097 334.212 171.198 334.212 171.198C336.883 187.235 335.93 199.6 355.614 202.456C381.218 202.668 387.934 182.737 387.934 182.737C378.911 189.451 364.849 190.499 364.849 190.499C381.43 183.785 393.391 169.309 393.391 169.309" fill="#51557E"/>
<path fill-rule="evenodd" clip-rule="evenodd" d="M317.012 190.292C307.092 174.245 310.896 151.66 313.44 133.88L269.371 158.218L268.111 165.773C268.111 165.773 291.196 193.476 307.147 203.116C307.147 203.116 297.071 188.434 295.393 175.006C295.393 175.006 312.185 205.226 328.141 209.83C328.141 209.83 320.584 181.302 320.166 164.937C320.166 164.937 315.762 181.826 317.022 190.323" fill="#51557E"/>
<path fill-rule="evenodd" clip-rule="evenodd" d="M316.901 220.815L263.391 179.488C250.377 198.16 251.848 220.397 251.848 220.397L255.204 219.138L260.03 217.038C280.384 212.212 295.494 218.715 295.494 218.715C286.052 218.926 280.596 222.493 280.596 222.493L278.289 226.9C291.509 222.286 305.359 224.17 305.359 224.17C299.691 226.059 292.763 230.884 292.763 230.884L299.479 235.291C304.517 227.529 316.896 220.815 316.896 220.815" fill="#816797"/>
<path fill-rule="evenodd" clip-rule="evenodd" d="M358.713 218.554C358.713 218.554 369.625 221.284 368.154 232.818L367.736 235.13L386.781 257.891C386.781 257.891 396.857 241.32 388.458 220.966C388.458 220.966 388.881 233.871 385.435 240.267C385.435 240.267 383.773 216.912 371.379 209.639C362.92 212.263 349.816 213.371 340.686 211.653L347.402 227.388L358.713 218.554Z" fill="#51557E"/>
<path fill-rule="evenodd" clip-rule="evenodd" d="M353.942 239.744C358.713 236.379 360.753 231.982 359.086 225.897L349.957 236.807L353.942 239.744Z" fill="#816797"/>
<path fill-rule="evenodd" clip-rule="evenodd" d="M492.547 210.188C480.163 222.357 479.115 261.377 479.115 261.377C474.712 237.044 476.808 216.69 476.808 216.69C471.981 226.661 468.86 237.37 467.573 248.372C469.674 263.482 464.847 294.317 464.847 294.317L464.792 296.73C478.248 302.326 478.319 308.516 481.216 323.475C486.043 311.306 481.634 284.037 481.634 284.037C509.117 317.783 500.522 357.881 500.522 357.881C504.508 358.093 506.815 361.865 506.815 361.865L512.493 349.883C524.242 339.809 527.391 350.936 527.391 350.936L522.146 369.184C525.502 365.411 529.069 356.808 529.069 356.808C537.044 313.593 515.43 265.139 515.43 265.139C513.123 273.112 502.21 285.911 502.21 285.911C515.012 246.04 492.547 210.188 492.547 210.188Z" fill="#816797"/>
<path fill-rule="evenodd" clip-rule="evenodd" d="M468.253 329.559C468.716 306.788 460.696 297.913 439.923 302.285L468.253 329.559Z" fill="#51557E"/>
<path fill-rule="evenodd" clip-rule="evenodd" d="M429.162 402.85C429.162 402.85 418.128 385.498 424.123 358.586C424.123 358.586 415.312 375.369 414.888 387.12C414.888 387.12 412.793 369.073 420.345 352.714C420.345 352.714 404.605 372.433 404.605 387.744C404.605 387.744 402.086 360.893 409.855 342.64C397.26 356.869 395.134 378.255 397.472 396.765C397.472 396.765 414.259 402.85 429.157 402.85" fill="#51557E"/>
<path fill-rule="evenodd" clip-rule="evenodd" d="M433.676 365.406C430.195 372.181 426.769 385.05 432.94 391.21C432.94 391.21 430.633 381.453 438.482 377.364C438.482 377.364 437.979 373.168 441.002 371.173L433.676 365.406Z" fill="#51557E"/>
<path fill-rule="evenodd" clip-rule="evenodd" d="M444.689 374.216C443.289 383.785 456.343 399.238 471.971 394.67L444.689 374.216Z" fill="#51557E"/>
<path fill-rule="evenodd" clip-rule="evenodd" d="M463.366 404.673L439.535 386.802C438.618 393.093 444.835 402.28 453.778 404.754H463.054L463.366 404.673Z" fill="#51557E"/>
<path fill-rule="evenodd" clip-rule="evenodd" d="M443.611 404.754L433.802 399.067C433.822 401.071 434.381 403.034 435.419 404.749L443.611 404.754Z" fill="#51557E"/>
<path fill-rule="evenodd" clip-rule="evenodd" d="M305.928 300.799C305.928 300.799 321.456 308.979 340.132 312.339C342.395 313.021 344.475 314.204 346.218 315.799C346.218 315.799 359.962 327.338 366.467 324.296C366.467 324.296 367.938 322.407 362.693 318.423C362.693 318.423 352.113 307.513 340.132 303.63C340.132 303.63 324.604 298.593 318.73 279.715C318.73 279.715 323.451 282.964 325.864 283.594C325.864 283.594 328.383 276.88 325.547 273.52C325.547 273.52 297.222 269.43 272.646 288.938C272.646 288.938 280.097 278.763 284.818 275.092C284.818 275.092 265.3 279.287 255.229 283.483L250.402 285.372L249.395 289.099C249.395 289.099 247.087 308.188 251.702 315.532L261.355 311.548C261.355 311.548 255.425 304.622 254.115 300.427C254.115 300.427 270.903 311.508 285.176 315.27C291.123 319.213 296.569 323.864 301.394 329.121L303.021 330.592L309.943 330.38C309.943 330.38 302.442 323.722 300.29 317.214C300.29 317.214 309.525 327.756 318.024 331.317C318.024 331.317 324.947 332.37 327.154 330.058C327.154 330.058 312.15 322.82 307.001 312.228C307.001 312.228 320.957 322.805 333.441 324.921L337.744 322.196L333.653 317.788C333.653 317.788 311.933 311.493 305.943 300.794" fill="#51557E"/>
<path fill-rule="evenodd" clip-rule="evenodd" d="M329.804 286.842C329.804 286.842 333.376 293.869 342.818 297.017C342.818 297.017 363.066 307.297 367.686 315.149C367.686 315.149 377.969 327.948 368.316 332.561L381.113 340.953C381.113 340.953 386.256 327.545 387.728 325.026C387.728 325.026 362.436 304.879 358.138 299.842L360.864 293.028L331.905 273.727C331.905 273.727 333.477 283.689 329.804 286.822" fill="#816797"/>
<path fill-rule="evenodd" clip-rule="evenodd" d="M362.436 299.636C362.436 299.636 383.012 317.471 389.3 321.35L392.867 315.371L364.849 295.224L362.436 299.636Z" fill="#816797"/>
<path fill-rule="evenodd" clip-rule="evenodd" d="M377.813 292.615L398.484 308.138L404.676 300.9L379.702 278.033L375.611 282.022L392.297 298.699L377.813 292.615Z" fill="#816797"/>
<path fill-rule="evenodd" clip-rule="evenodd" d="M353.786 268.594L362.809 259.991L338.676 238.384L325.874 255.171L348.959 275.52L334.061 254.542L353.786 268.594Z" fill="#816797"/>
<path fill-rule="evenodd" clip-rule="evenodd" d="M368.059 265.028L356.516 280.552L363.862 286.006L373.092 268.806L368.059 265.028Z" fill="#816797"/>
<path fill-rule="evenodd" clip-rule="evenodd" d="M354.889 246.775L418.471 300.689L423.297 298.593L360.552 243.833L354.889 246.775Z" fill="#D6D5A8"/>
<path fill-rule="evenodd" clip-rule="evenodd" d="M324.091 246.251L330.6 239.542L325.456 236.918L318.846 243.103L324.091 246.251Z" fill="#816797"/>
<path fill-rule="evenodd" clip-rule="evenodd" d="M321.889 250.346L318.639 247.828L314.649 251.812L317.586 254.33L321.889 250.346Z" fill="#816797"/>
<path fill-rule="evenodd" clip-rule="evenodd" d="M314.332 239.542L322.937 233.035L319.264 230.516L311.082 236.077L311.818 236.918L314.332 239.542Z" fill="#816797"/>
<path fill-rule="evenodd" clip-rule="evenodd" d="M307.092 246.453L297.333 240.912L291.146 246.997L288.309 244.896L283.171 259.689L281.599 247.415L277.503 263.673L284.556 263.17L303.232 262.857C299.665 260.843 293.055 258.974 293.055 258.974C304.281 256.355 315.727 259.08 315.727 259.08L307.858 252.89L313.208 244.498L310.482 242.927L307.092 246.453Z" fill="#1B2430"/>
<path fill-rule="evenodd" clip-rule="evenodd" d="M265.648 271.324L274.883 237.124C258.932 245.309 255.365 272.79 255.365 272.79L265.648 271.324Z" fill="#1B2430"/>
<path fill-rule="evenodd" clip-rule="evenodd" d="M245.132 252.497L255.833 228.789C246.498 231.095 239.888 237.497 239.888 237.497C237.368 225.958 239.57 198.472 239.57 198.472C230.149 206.657 227.277 211.064 222.889 223.439L233.378 221.656L222.465 244.73C236.739 246.83 245.137 252.497 245.137 252.497" fill="#816797"/>
<path fill-rule="evenodd" clip-rule="evenodd" d="M236.739 268.02C221.417 257.946 205.472 261.518 205.472 261.518L200.746 269.38L189.209 294.977C180.392 313.437 185.218 328.124 185.218 328.124C178.296 323.51 177.036 313.648 177.036 313.648C174.729 322.251 175.988 327.076 175.988 327.076C184.246 347.919 224.778 330.537 224.778 330.537C205.678 328.441 198.126 321.621 198.126 321.621C222.783 325.188 243.661 317.532 243.661 317.532C239.676 310.4 239.887 291.305 239.887 291.305C229.811 287.533 204.212 286.48 204.212 286.48C221.211 278.925 244.608 275.469 244.608 275.469L246.916 264.137C237.575 259.211 224.244 256.375 224.244 256.375C230.224 259.629 236.734 268.02 236.734 268.02" fill="#816797"/>
<path fill-rule="evenodd" clip-rule="evenodd" d="M305.993 356.446C305.092 349.299 303.782 343.798 303.782 343.798C301.943 338.671 295.746 335.16 288.314 332.974C288.647 333.11 288.985 333.246 289.322 333.392L305.993 356.446Z" fill="#51557E"/>
<path fill-rule="evenodd" clip-rule="evenodd" d="M335.049 346.105C335.049 346.105 331.275 367.295 338.616 380.723C338.616 380.723 328.756 373.379 325.396 359.322L323.718 352.819L322.881 348.201C322.881 348.201 318.659 362.122 319.188 374.699L333.25 394.146L357.292 397.083C357.292 397.083 349.735 366.862 362.119 333.725L347.241 325.127C347.241 325.127 336.958 343.375 345.352 368.761C345.352 368.761 339.059 363.935 335.069 346.095" fill="#51557E"/>
<path fill-rule="evenodd" clip-rule="evenodd" d="M361.489 368.025C361.489 368.025 358.763 387.956 366.633 392.575C366.633 392.575 372.926 396.141 377.022 399.183C377.022 399.183 368.417 390.056 367.998 381.05C367.998 381.05 375.132 392.272 382.161 394.479L383.314 379.267L361.489 368.025Z" fill="#51557E"/>
<path fill-rule="evenodd" clip-rule="evenodd" d="M366.109 350.507C366.109 350.507 362.753 359.951 373.031 365.618L383.737 372.543L386.256 353.031L371.988 343.38C371.988 343.38 378.286 354.29 379.752 360.586C379.752 360.586 374.296 350.512 368.84 348.417L366.532 347.913L366.109 350.507Z" fill="#51557E"/>
<path fill-rule="evenodd" clip-rule="evenodd" d="M394.227 346.841C385.773 355.579 387.41 386.601 388.877 398.448C388.877 398.448 390.766 370.544 397.688 354.179C397.688 354.179 392.862 359.72 391.501 365.718C391.501 365.718 391.859 352.703 394.227 346.841Z" fill="#51557E"/>
<path fill-rule="evenodd" clip-rule="evenodd" d="M396.615 340.973L413.614 309.714L409.21 305.937C409.21 305.937 399.557 322.09 397.668 333.211L396.615 337.744V340.973Z" fill="#816797"/>
<path fill-rule="evenodd" clip-rule="evenodd" d="M421.413 333.312C421.413 333.312 422.461 345.063 475.135 383.247L479.962 375.691L422.249 324.714C422.249 324.714 436.311 345.481 443.863 351.777L421.413 333.312Z" fill="#D6D5A8"/>
<path fill-rule="evenodd" clip-rule="evenodd" d="M428.335 318.207L482.269 371.078L485.836 367.718L428.335 318.207Z" fill="#D6D5A8"/>
<path fill-rule="evenodd" clip-rule="evenodd" d="M422.249 304.36L490.028 361.634L492.759 358.904L426.758 302.472L422.249 304.36Z" fill="#D6D5A8"/>
<path fill-rule="evenodd" clip-rule="evenodd" d="M503.656 363.306C496.21 362.258 491.383 371.279 491.383 371.279L500.401 381.766L496.834 388.49L532.303 417.441L538.389 416.182L537.336 418.912L571.752 448.281L575.319 443.245L510.266 388.898L507.435 389.633L509.848 386.173C516.564 372.327 519.083 354.915 519.083 354.915C510.896 369.39 501.873 374.427 501.873 374.427C502.82 372.745 505.964 364.983 505.964 364.983C505.46 363.83 503.656 363.306 503.656 363.306" fill="#D6D5A8"/>
<path fill-rule="evenodd" clip-rule="evenodd" d="M593.577 456.557L586.756 462.848L602.077 476.487L608.898 470.615L593.577 456.557Z" fill="#D6D5A8"/>
<path fill-rule="evenodd" clip-rule="evenodd" d="M585.184 459.806L590.222 454.144L580.881 446.695C577.944 448.06 577.208 454.356 577.208 454.356L585.184 459.806Z" fill="#D6D5A8"/>
<path fill-rule="evenodd" clip-rule="evenodd" d="M213.971 245.047L223.413 230.153L214.284 232.037L205.89 246.095L213.971 245.047Z" fill="#816797"/>
<path fill-rule="evenodd" clip-rule="evenodd" d="M254.156 300.432C254.156 300.432 270.943 311.513 285.216 315.275C291.149 319.219 296.582 323.868 301.394 329.121L303.021 330.592L309.943 330.38C309.943 330.38 302.442 323.722 300.29 317.214C300.29 317.214 309.525 327.756 318.024 331.317C318.024 331.317 324.947 332.37 327.154 330.058C327.154 330.058 318.256 325.772 311.818 318.977C315.647 323.918 319.108 327.862 319.108 327.862C305.157 323.455 292.773 304.577 292.773 304.577C290.758 308.455 293.192 314.016 293.192 314.016C290.169 310.722 282.762 306.501 275.124 302.678L275.21 302.723C274.515 302.074 273.321 300.17 271.94 294.665C271.94 294.665 287.236 280.562 303.091 274.855C291.996 277.115 281.586 281.946 272.696 288.958C272.696 288.958 280.148 278.784 284.868 275.112C284.868 275.112 265.351 279.307 255.279 283.503L250.453 285.392L249.445 289.119C249.445 289.119 247.138 308.209 251.753 315.552L261.406 311.568C261.406 311.568 255.476 304.642 254.166 300.447" fill="#51557E"/>
<path fill-rule="evenodd" clip-rule="evenodd" d="M306.986 312.233C306.986 312.233 320.942 322.81 333.426 324.926L337.729 322.201L333.638 317.794C327.913 316.037 322.388 313.685 317.153 310.777C319.415 314.807 331.053 320.191 331.053 320.191C324.232 320.297 306.986 312.233 306.986 312.233" fill="#1B2430"/>
<path fill-rule="evenodd" clip-rule="evenodd" d="M346.233 315.799C346.233 315.799 359.977 327.338 366.482 324.296C366.482 324.296 367.953 322.407 362.708 318.423C360.13 315.872 357.366 313.515 354.441 311.372C361.665 321.118 347.74 312.958 347.74 312.958C344.803 310.752 339.764 309.493 339.764 309.493C331.366 310.117 305.928 300.799 305.928 300.799C305.928 300.799 321.456 308.979 340.132 312.339C342.395 313.021 344.475 314.204 346.218 315.799" fill="#1B2430"/>
<path fill-rule="evenodd" clip-rule="evenodd" d="M303.071 274.835C303.071 274.835 296.789 278.28 289.76 285.83C296.262 281.318 303.89 278.702 311.792 278.275C311.792 278.275 310.321 285.407 321.969 297.47C321.969 297.47 319.924 293.063 319.818 289.809C319.818 289.809 325.013 301.771 338.812 304.97C338.812 304.97 351.226 309.417 354.43 311.362C350.47 308.445 345.437 305.348 340.137 303.625C340.137 303.625 324.609 298.588 318.735 279.71C318.735 279.71 323.456 282.959 325.869 283.589C325.869 283.589 328.388 276.875 325.552 273.515C325.552 273.515 315.944 272.125 303.066 274.825" fill="#D6D5A8"/>
<path fill-rule="evenodd" clip-rule="evenodd" d="M203.381 313.074C202.801 313.104 202.197 313.119 201.577 313.109C201.577 313.109 202.232 313.109 203.381 313.074ZM205.472 261.518C223.942 265.013 235.036 274.447 235.036 274.447C220.662 277.177 204.212 286.48 204.212 286.48L235.419 298.513C234.131 301.956 233.232 305.533 232.738 309.176C223.312 312.258 208.495 312.933 203.381 313.074C209.668 312.721 213.538 310.173 213.538 310.173C190.05 308.909 193.153 286.243 193.153 286.243L189.209 294.997C180.392 313.457 185.218 328.144 185.218 328.144C178.296 323.53 177.036 313.668 177.036 313.668C174.729 322.271 175.988 327.096 175.988 327.096C184.246 347.939 224.778 330.557 224.778 330.557C205.678 328.461 198.126 321.642 198.126 321.642C222.783 325.208 243.661 317.552 243.661 317.552C239.676 310.42 239.887 291.325 239.887 291.325C229.811 287.553 204.212 286.5 204.212 286.5C221.211 278.945 244.608 275.49 244.608 275.49L246.916 264.157C237.575 259.231 224.244 256.395 224.244 256.395C230.224 259.649 236.734 268.04 236.734 268.04C221.418 257.951 205.472 261.518 205.472 261.518Z" fill="#51557E"/>
<path fill-rule="evenodd" clip-rule="evenodd" d="M305.993 356.446C305.092 349.299 303.782 343.798 303.782 343.798C301.943 338.671 295.746 335.16 288.314 332.974C288.647 333.11 288.985 333.246 289.322 333.392L305.993 356.446Z" fill="#1B2430"/>
<path fill-rule="evenodd" clip-rule="evenodd" d="M349.297 334.969C349.297 334.969 348.838 359.337 355.075 370.226C355.441 357.763 357.823 345.442 362.129 333.74L347.241 325.127C347.241 325.127 336.958 343.375 345.352 368.761C345.352 368.761 339.059 363.935 335.069 346.095C335.069 346.095 331.295 367.285 338.636 380.713C338.636 380.713 328.776 373.369 325.416 359.312L323.738 352.809L322.902 348.19C322.902 348.19 318.68 362.112 319.209 374.689L325.219 383.005C329.139 384.888 335.618 386.843 346.173 387.618C343.211 381.756 341.227 375.449 340.299 368.947C343.07 370.977 346.192 372.48 349.508 373.379C349.508 373.379 344.102 348.432 349.297 334.984" fill="#1B2430"/>
<path fill-rule="evenodd" clip-rule="evenodd" d="M421.957 198.92C433.52 171.047 424.134 131.231 424.134 131.231C427.706 168.78 409.659 195.848 409.659 195.848C413.856 184.309 414.062 156.616 414.062 156.616C410.495 184.938 394.338 206.984 394.338 206.984C399.583 215.587 402.313 244.539 402.313 244.539C405.669 233.211 405.457 210.55 405.457 210.55C411.336 222.508 412.596 243.697 412.596 243.697C414.486 236.354 416.37 220.83 416.37 220.83C420.36 242.438 417.629 260.273 417.629 260.273L443.651 276.844L423.715 271.601L444.699 290.061L457.501 236.167C449.319 242.458 438.195 242.67 438.195 242.67C451.209 235.115 459.391 215.814 459.391 215.814C449.949 225.046 428.965 234.908 428.965 234.908C450.392 216.967 458.988 197.001 461.713 179.781C453.965 205.226 426.164 220.579 426.164 220.579C434.159 206.309 432.043 186.172 432.043 186.172C428.053 193.516 421.967 198.971 421.967 198.971" fill="#1B2430"/>
<path fill-rule="evenodd" clip-rule="evenodd" d="M371.802 193.677C342.933 200.064 337.487 188.948 336.505 185.477C338.449 194.271 342.334 200.532 355.614 202.456C381.218 202.668 387.934 182.737 387.934 182.737C378.911 189.451 364.849 190.499 364.849 190.499C374.115 186.746 381.939 180.571 387.017 175.852C374.659 184.918 353.105 188.746 353.105 188.746C361.292 195.148 371.782 193.677 371.782 193.677" fill="#1B2430"/>
<path fill-rule="evenodd" clip-rule="evenodd" d="M295.388 174.976C295.388 174.976 312.18 205.196 328.136 209.8C328.136 209.8 320.579 181.272 320.161 164.907C320.161 164.907 315.757 181.795 317.017 190.292C308.784 176.975 310.004 159.16 312.115 143.309C304.452 157.029 308.86 183.1 308.86 183.1C299.837 178.481 289.972 161.699 289.972 161.699C288.862 168.643 289.364 175.75 291.438 182.47C281.16 179.896 268.117 165.758 268.117 165.758C268.117 165.758 291.201 193.461 307.152 203.101C307.152 203.101 297.076 188.419 295.398 174.991" fill="#1B2430"/>
<path fill-rule="evenodd" clip-rule="evenodd" d="M287.549 153.081C287.549 153.081 292.194 160.686 299.927 161.789C299.927 161.789 295.993 145.47 313.435 133.855L269.366 158.193L268.106 165.748C268.106 165.748 273.276 169.138 281.775 168.403C281.775 168.403 278.208 161.351 287.549 153.086" fill="#D6D5A8"/>
<path fill-rule="evenodd" clip-rule="evenodd" d="M424.134 131.231C424.134 131.231 432.865 139.653 433.495 159.372C433.495 159.372 437.485 144.896 436.855 139.224C436.855 139.224 448.397 161.25 444.83 182.234C444.83 182.234 458.69 164.816 460.157 144.574C459.521 141.897 458.708 139.265 457.723 136.696V136.696C456.18 135.116 454.413 133.772 452.478 132.707C440.724 128.723 424.144 131.241 424.144 131.241" fill="#D6D5A8"/>
<path fill-rule="evenodd" clip-rule="evenodd" d="M518.907 311.054C511.349 314.409 507.576 328.048 507.576 328.048C503.586 286.51 477.347 266.998 477.347 266.998C477.765 275.6 474.198 284.626 474.198 284.626C473.986 272.246 467.563 248.361 467.563 248.361C469.663 263.472 464.837 294.307 464.837 294.307L464.781 296.72C478.238 302.315 478.309 308.506 481.206 323.465C486.032 311.296 481.624 284.027 481.624 284.027C509.107 317.773 500.512 357.871 500.512 357.871C504.498 358.083 506.805 361.855 506.805 361.855L512.493 349.883C524.242 339.809 527.391 350.936 527.391 350.936L522.146 369.184C525.502 365.411 529.069 356.808 529.069 356.808C530.335 349.73 530.926 342.547 530.832 335.357C530.535 298.996 515.43 265.129 515.43 265.129C513.123 273.102 502.21 285.901 502.21 285.901C511.168 283.599 516.398 276.018 516.398 276.018C518.917 302.331 518.917 311.054 518.917 311.054" fill="#51557E"/>
<path fill-rule="evenodd" clip-rule="evenodd" d="M492.043 228.824C492.043 228.824 505.47 252.91 502.2 285.911C515.012 246.04 492.547 210.188 492.547 210.188C480.163 222.357 479.115 261.377 479.115 261.377C479.115 261.377 484.697 243.748 492.043 228.839" fill="#D6D5A8"/>
<path fill-rule="evenodd" clip-rule="evenodd" d="M358.138 299.842L335.074 285.034C335.391 283.032 335.272 280.986 334.725 279.034C334.179 277.083 333.216 275.272 331.905 273.727C331.905 273.727 333.477 283.689 329.804 286.822C329.804 286.822 333.376 293.849 342.818 296.997C342.818 296.997 363.066 307.277 367.686 315.129C367.686 315.129 377.969 327.928 368.316 332.541L381.113 340.932C385.299 328.915 375.067 314.711 375.067 314.706C368.064 308.939 360.355 302.391 358.154 299.812" fill="#51557E"/>
<path fill-rule="evenodd" clip-rule="evenodd" d="M368.059 265.028L356.516 280.552L363.862 286.006L365.55 282.858L361.62 278.219L368.059 265.028Z" fill="#51557E"/>
<path fill-rule="evenodd" clip-rule="evenodd" d="M353.786 268.594L362.809 259.991L353.856 263.326L331.638 247.611L325.874 255.171L348.959 275.52L334.061 254.542L353.786 268.594Z" fill="#51557E"/>
<path fill-rule="evenodd" clip-rule="evenodd" d="M392.297 298.699L377.813 292.615L398.484 308.138L400.777 305.463L392.68 300.145H398.343L375.611 282.022L392.297 298.699Z" fill="#816797"/>
<path fill-rule="evenodd" clip-rule="evenodd" d="M409.21 305.937C409.21 305.937 399.557 322.09 397.668 333.211L396.615 337.744V340.998L405.588 324.497C404.868 317.239 409.21 305.962 409.21 305.962" fill="#51557E"/>
<path fill-rule="evenodd" clip-rule="evenodd" d="M443.863 351.777L421.413 333.312C421.413 333.312 422.461 345.063 475.135 383.247C475.135 383.247 452.745 363.729 445.022 344.831L422.249 324.714C422.249 324.714 436.311 345.481 443.863 351.777" fill="#51557E"/>
<path fill-rule="evenodd" clip-rule="evenodd" d="M299.484 235.291C304.522 227.529 316.901 220.815 316.901 220.815L307.792 223.047C304.294 221.921 300.658 221.286 296.985 221.158C301.076 219.793 305.903 219.793 305.903 219.793C277.155 205.317 259.108 208.883 259.108 208.883C257.219 192.312 263.391 179.488 263.391 179.488C250.377 198.16 251.848 220.397 251.848 220.397L255.204 219.138L260.03 217.038C280.384 212.212 295.494 218.715 295.494 218.715C286.052 218.926 280.596 222.493 280.596 222.493L278.289 226.9C291.509 222.286 305.359 224.17 305.359 224.17C299.691 226.059 292.763 230.884 292.763 230.884L299.484 235.291Z" fill="#51557E"/>
<path fill-rule="evenodd" clip-rule="evenodd" d="M318.634 236.288L311.45 236.495L311.818 236.918L314.332 239.542L318.634 236.288Z" fill="#51557E"/>
<path fill-rule="evenodd" clip-rule="evenodd" d="M327.909 242.312L318.846 243.103L324.091 246.251L327.909 242.312Z" fill="#51557E"/>
<path fill-rule="evenodd" clip-rule="evenodd" d="M263.391 179.488C263.391 179.488 261.436 185.946 264.141 197.238C264.141 197.238 264.645 190.947 266.449 187.905L316.901 220.815L263.391 179.488Z" fill="#D6D5A8"/>
<path fill-rule="evenodd" clip-rule="evenodd" d="M338.676 238.384L331.638 247.611L338.535 244.236L362.809 259.991L338.676 238.384Z" fill="#D6D5A8"/>
<path fill-rule="evenodd" clip-rule="evenodd" d="M320.796 241.28L330.6 239.542L325.456 236.918L320.796 241.28Z" fill="#D6D5A8"/>
<path fill-rule="evenodd" clip-rule="evenodd" d="M311.082 236.077L322.937 233.035L319.35 230.577L311.082 236.077Z" fill="#D6D5A8"/>
<path fill-rule="evenodd" clip-rule="evenodd" d="M368.059 265.028L367.389 274.13L368.562 277.242L373.092 268.806L368.059 265.028Z" fill="#D6D5A8"/>
<path fill-rule="evenodd" clip-rule="evenodd" d="M379.702 278.033L375.611 282.022L404.676 300.9L379.702 278.033Z" fill="#816797"/>
<path fill-rule="evenodd" clip-rule="evenodd" d="M409.19 305.937L408.596 318.902L413.594 309.709L409.19 305.937Z" fill="#D6D5A8"/>
<path fill-rule="evenodd" clip-rule="evenodd" d="M426.758 302.472L490.028 361.634L492.758 358.904L426.758 302.472Z" fill="#D6D5A8"/>
<path fill-rule="evenodd" clip-rule="evenodd" d="M354.889 246.775L423.297 298.593L360.552 243.833L354.889 246.775Z" fill="#D6D5A8"/>
<path fill-rule="evenodd" clip-rule="evenodd" d="M590.167 459.705L586.756 462.848L602.077 476.487L608.898 470.615L602.419 472.901L590.167 459.705Z" fill="#816797"/>
<path fill-rule="evenodd" clip-rule="evenodd" d="M585.184 459.806L587.023 457.74C580.544 454.537 580.881 446.695 580.881 446.695C577.944 448.06 577.208 454.356 577.208 454.356L585.184 459.806Z" fill="#816797"/>
<path fill-rule="evenodd" clip-rule="evenodd" d="M571.752 448.271L575.319 443.235L571.047 444.791L538.389 416.172L537.336 418.902L571.752 448.271Z" fill="#816797"/>
<path fill-rule="evenodd" clip-rule="evenodd" d="M532.303 417.431L538.389 416.172L501.585 387.306L504.84 381.433L491.383 371.279L500.406 381.766L496.834 388.48L532.303 417.431Z" fill="#816797"/>
<path fill-rule="evenodd" clip-rule="evenodd" d="M593.577 456.557L601.583 468.182L608.898 470.615L593.577 456.557Z" fill="#FCE2A6"/>
<path fill-rule="evenodd" clip-rule="evenodd" d="M588.741 455.806L590.222 454.144L580.881 446.695C580.881 446.695 584.947 453.887 588.741 455.806" fill="#FCE2A6"/>
<path fill-rule="evenodd" clip-rule="evenodd" d="M574.719 443.456L575.319 443.235L510.266 388.898L507.435 389.633L509.878 390.142L574.719 443.456Z" fill="#D6D5A8"/>
<path fill-rule="evenodd" clip-rule="evenodd" d="M509.848 386.173C516.564 372.327 519.083 354.915 519.083 354.915C510.896 369.39 501.872 374.427 501.872 374.427C501.872 374.427 511.203 372.705 514.281 368.217C514.281 368.217 511.485 383.131 508.105 388.676L509.848 386.173Z" fill="#D6D5A8"/>
<path fill-rule="evenodd" clip-rule="evenodd" d="M501.873 374.427C502.82 372.745 505.964 364.983 505.964 364.983C505.46 363.83 503.656 363.306 503.656 363.306C499.167 362.671 495.63 365.698 493.529 368.202C493.529 368.202 505.117 363.724 501.873 374.427Z" fill="#D6D5A8"/>
<path fill-rule="evenodd" clip-rule="evenodd" d="M380.609 353.111C380.609 353.111 385.551 358.476 384.72 364.903L386.231 353.026L371.963 343.375C371.963 343.375 378.261 354.285 379.727 360.581C379.727 360.581 374.271 350.507 368.814 348.412L366.507 347.908C366.507 347.908 376.709 355.121 379.959 365.089C379.959 365.089 382.08 358.037 380.589 353.132" fill="#1B2430"/>
<path fill-rule="evenodd" clip-rule="evenodd" d="M394.227 346.841C391.088 350.084 389.34 356.411 388.458 363.674C388.458 363.674 390.262 368.529 389.97 372.83C389.97 372.83 391.607 368.423 394 365.522C394.954 361.656 396.188 357.865 397.693 354.179C397.693 354.179 392.867 359.72 391.506 365.718C391.506 365.718 391.864 352.703 394.232 346.841" fill="#1B2430"/>
<path fill-rule="evenodd" clip-rule="evenodd" d="M409.86 342.655C405.624 347.53 402.401 353.199 400.379 359.332C400.379 359.332 397.084 383.231 405.371 393.078C405.371 393.078 408.208 381.121 411.246 376.507C411.246 376.507 411.039 387.205 415.025 392.978C415.025 392.978 416.496 384.375 418.592 380.285C418.592 380.285 421.373 396.69 429.172 402.855C429.172 402.855 418.138 385.503 424.134 358.591C424.134 358.591 415.322 375.374 414.899 387.125C414.899 387.125 412.803 369.078 420.355 352.719C420.355 352.719 404.616 372.438 404.616 387.749C404.616 387.749 402.097 360.898 409.865 342.645" fill="#1B2430"/>
<path fill-rule="evenodd" clip-rule="evenodd" d="M431.791 369.753C431.791 369.753 433.172 382.209 430.94 388.389C431.446 389.445 432.127 390.407 432.955 391.235C432.955 391.235 430.648 381.479 438.497 377.389C438.497 377.389 437.994 373.193 441.016 371.199L433.671 365.431C432.953 366.84 432.324 368.292 431.787 369.778" fill="#1B2430"/>
<path fill-rule="evenodd" clip-rule="evenodd" d="M444.689 374.216L463.678 395.32C466.457 395.689 469.283 395.468 471.971 394.67L444.689 374.216Z" fill="#1B2430"/>
<path fill-rule="evenodd" clip-rule="evenodd" d="M463.366 404.668L439.535 386.802L455.632 404.754H463.064L463.366 404.668Z" fill="#1B2430"/>
<path fill-rule="evenodd" clip-rule="evenodd" d="M443.611 404.754L433.802 399.072L439.727 404.754H443.611Z" fill="#1B2430"/>
<path fill-rule="evenodd" clip-rule="evenodd" d="M320.382 29.8104C320.382 29.8104 331.466 9.15959 357.297 15.9693C357.297 15.9693 355.907 13.1084 349.533 12.091C349.533 12.091 369.711 10.8922 383.652 37.4008C374.77 10.6706 347.83 8.34867 347.135 8.29327C344.826 8.02316 342.488 8.12861 340.213 8.60555L336.772 10.9073C334.988 12.1632 333.324 13.4543 331.779 14.7806C326.675 19.1778 322.861 24.0483 320.398 29.8104" fill="#D6D5A8"/>
<path fill-rule="evenodd" clip-rule="evenodd" d="M383.012 36.187C383.012 36.187 350.385 34.8119 331.92 44.3969C331.92 44.3969 332.655 28.0324 337.008 21.1119C337.008 21.1119 329.859 20.0441 320.382 29.8104C317.979 35.4315 316.856 41.8987 317.113 49.6201C320.468 32.8375 332.227 24.2347 332.227 24.2347C324.67 33.2556 325.511 51.2973 325.511 51.2973C354.889 41.8584 385.969 47.7313 385.969 47.7313C385.545 44.2211 384.777 40.761 383.677 37.4008C383.46 36.9878 383.244 36.5849 383.022 36.187" fill="#8F8F8F"/>
<path fill-rule="evenodd" clip-rule="evenodd" d="M361.489 368.025C361.489 368.025 381.319 384.415 382.145 394.463L383.299 379.252L361.489 368.025Z" fill="#1B2430"/>
<path fill-rule="evenodd" clip-rule="evenodd" d="M351.105 392.444C341.029 392.826 334.091 391.109 329.36 388.772L333.25 394.146L357.292 397.083C357.292 397.083 354.561 386.148 355.075 370.211C352.897 377.444 351.565 384.904 351.105 392.444" fill="#D6D5A8"/>
<path fill-rule="evenodd" clip-rule="evenodd" d="M361.489 368.025C361.489 368.025 358.763 387.956 366.633 392.575C366.633 392.575 372.926 396.141 377.022 399.183C377.022 399.183 368.417 390.056 367.998 381.05C366.225 386.405 367.369 389.613 367.369 389.613C361.978 385.584 361.489 368.025 361.489 368.025Z" fill="#D6D5A8"/>
<path fill-rule="evenodd" clip-rule="evenodd" d="M397.285 373.077C396.379 380.946 396.443 388.897 397.477 396.75C397.477 396.75 414.264 402.835 429.162 402.835C409.745 401.077 409.341 390.122 409.341 390.122C407.452 393.058 407.135 397.042 407.135 397.042C396.434 392.847 397.285 373.062 397.285 373.062" fill="#D6D5A8"/>
<path fill-rule="evenodd" clip-rule="evenodd" d="M445.747 268.876L423.922 255.866C423.922 244.962 416.365 220.81 416.365 220.81C420.355 242.418 417.624 260.253 417.624 260.253L443.646 276.824L423.71 271.581L444.694 290.041L457.496 236.147L445.747 268.876Z" fill="#D6D5A8"/>
<path fill-rule="evenodd" clip-rule="evenodd" d="M338.097 177.403C338.097 177.403 354.874 191.421 393.391 169.309C359.393 186.097 334.212 171.198 334.212 171.198C335.079 176.416 335.567 181.241 336.505 185.477L338.097 177.403Z" fill="#D6D5A8"/>
<path fill-rule="evenodd" clip-rule="evenodd" d="M388.352 138.368C388.247 148.774 353.523 176.285 352.42 149.812C351.412 154.264 352.173 159.759 356.037 166.478C356.037 166.478 377.233 160.812 386.045 152.421C386.045 152.421 377.228 166.685 369.258 169.626C369.258 169.626 388.352 165.008 392.549 157.876C392.549 157.876 394.227 146.759 388.352 138.368" fill="#1B2430"/>
<path fill-rule="evenodd" clip-rule="evenodd" d="M369.57 136.076C369.57 136.076 362.648 146.004 362.33 157.231C362.33 157.231 366.739 138.142 380.589 130.798L376.392 131.951L374.084 132.455C374.084 132.455 355.443 136.56 352.42 149.777C352.42 149.777 354.254 141.914 369.55 136.041" fill="#D6D5A8"/>
<path fill-rule="evenodd" clip-rule="evenodd" d="M388.352 138.368C388.352 138.368 372.195 145.289 362.33 157.246C362.33 157.246 380.075 143.747 387.415 141.798C387.965 140.733 388.285 139.565 388.352 138.368Z" fill="#D6D5A8"/>
<path fill-rule="evenodd" clip-rule="evenodd" d="M323.612 202.894C309.656 197.127 295.398 174.976 295.398 174.976C295.398 174.976 312.19 205.196 328.146 209.8C328.146 209.8 320.589 181.271 320.171 164.907C318.811 182.823 323.632 202.894 323.632 202.894" fill="#D6D5A8"/>
<path fill-rule="evenodd" clip-rule="evenodd" d="M383.012 102.904C381.334 119.374 354.889 120.946 354.889 120.946C329.078 125.565 327.612 101.015 327.612 101.015C327.612 114.252 333.915 125.006 345.115 128.874C354.717 132.188 366.996 129.775 376.215 123.676C361.917 127.328 355.146 124.683 355.146 124.683C379.777 118.987 382.856 108.505 383.072 104.536C383.072 103.529 383.012 102.929 383.012 102.929" fill="#51557E"/>
<path fill-rule="evenodd" clip-rule="evenodd" d="M325.919 78.5161L334.988 55.1253C333.238 55.1661 331.507 55.4945 329.864 56.0973L322.811 77.4181C323.725 78.0725 324.807 78.4533 325.93 78.5161" fill="#D6D5A8"/>
<path fill-rule="evenodd" clip-rule="evenodd" d="M339.296 55.6088L330.701 78.4406C331.93 78.3499 333.033 78.229 334.031 78.0728L341.896 56.4147C341.046 56.0954 340.178 55.8296 339.296 55.6189" fill="#D6D5A8"/>
<path fill-rule="evenodd" clip-rule="evenodd" d="M344.283 57.422L338.273 76.8741C338.918 76.5723 339.523 76.1934 340.077 75.7458L345.558 58.0718C345.13 57.8401 344.702 57.6235 344.283 57.422Z" fill="#D6D5A8"/>
<path fill-rule="evenodd" clip-rule="evenodd" d="M363.182 49.8719L357.317 67.5913C358.259 68.3518 359.252 69.1023 360.27 69.7873L368.018 49.7762C366.408 49.6256 364.785 49.6577 363.182 49.8719" fill="#D6D5A8"/>
<path fill-rule="evenodd" clip-rule="evenodd" d="M372.265 50.441L364.134 72.0388C364.946 72.4306 365.788 72.7557 366.653 73.0109H366.986L374.936 51.1059C374.039 50.8642 373.154 50.6493 372.281 50.4612" fill="#D6D5A8"/>
<path fill-rule="evenodd" clip-rule="evenodd" d="M377.399 51.796L370.996 72.5173C371.5 72.4468 372.004 72.3612 372.507 72.2655L378.725 52.214L377.379 51.796" fill="#D6D5A8"/>
<path fill-rule="evenodd" clip-rule="evenodd" d="M415.427 92.2816C408.152 99.6353 405.391 88.1867 405.391 88.1867C408.858 90.3878 412.843 88.917 412.843 88.917C407.175 85.5625 403.014 65.5263 403.014 65.5263C403.049 75.9222 407.86 87.5319 407.86 87.5319C403.663 85.8547 399.885 79.7702 399.885 79.7702C401.774 100.119 409.961 100.96 409.961 100.96C413.7 99.6504 415.065 95.9635 415.427 92.2816" fill="#1B2430"/>
<path fill-rule="evenodd" clip-rule="evenodd" d="M230.325 242.227L233.378 221.656L222.465 244.73C236.739 246.83 245.137 252.497 245.137 252.497L255.838 228.789L243.384 246.956C239.857 245.365 230.325 242.207 230.325 242.207" fill="#51557E"/>
<path fill-rule="evenodd" clip-rule="evenodd" d="M209.931 245.571L212.535 234.974L205.89 246.095L209.931 245.571Z" fill="#51557E"/>
<path fill-rule="evenodd" clip-rule="evenodd" d="M223.413 230.153L209.931 245.571L213.971 245.047L223.413 230.153Z" fill="#51557E"/>
<path fill-rule="evenodd" clip-rule="evenodd" d="M222.889 223.439C222.889 223.439 228.542 214.806 235.071 209.704C235.071 209.704 234.24 233.085 240.18 240.932C240.18 240.932 248.931 231.74 255.833 228.799C246.498 231.105 239.888 237.507 239.888 237.507C237.368 225.968 239.57 198.482 239.57 198.482C230.149 206.667 227.277 211.074 222.889 223.45" fill="#D6D5A8"/>
<path fill-rule="evenodd" clip-rule="evenodd" d="M223.413 230.153L214.284 232.037L212.535 234.974L213.11 239.139L223.413 230.153Z" fill="#D6D5A8"/>
<path fill-rule="evenodd" clip-rule="evenodd" d="M305.605 96.6838L304.653 106.415L301.268 105C301.268 105.1 301.268 105.156 301.268 105.156L307.772 111.87L308.19 100.537L315.536 115.224L312.18 103.136L305.605 96.6838Z" fill="#1B2430"/>
<path fill-rule="evenodd" clip-rule="evenodd" d="M303.777 87.3204L308.392 85.6431L306.084 66.5537L305.127 84.933L302.623 79.2464L303.777 87.3204Z" fill="#1B2430"/>
<path fill-rule="evenodd" clip-rule="evenodd" d="M311.974 102.401L308.83 91.1181C304.326 93.3041 302.482 98.5978 301.746 102.028C303.071 99.1216 305.485 94.5431 308.054 93.2034L311.974 102.401Z" fill="#D6D5A8"/>
<path fill-rule="evenodd" clip-rule="evenodd" d="M301.469 71.1674L305.605 75.7408L306.084 66.5537L301.469 71.1674Z" fill="#D6D5A8"/>
<path fill-rule="evenodd" clip-rule="evenodd" d="M403.165 62.484C403.165 62.484 406.838 75.9826 411.034 80.7776C411.034 80.7776 409.372 75.6753 409.019 73.303C409.019 73.303 412.39 82.0318 414.803 83.1247C411.231 75.9927 405.356 56.2737 405.356 56.2737L404.097 58.9985L403.26 61.7285C403.227 61.9803 403.196 62.2322 403.17 62.484" fill="#D6D5A8"/>
<path fill-rule="evenodd" clip-rule="evenodd" d="M327.799 90.7504C327.028 89.4409 326.433 85.7137 326.433 85.7137C330.353 85.9504 334.575 83.6688 334.575 83.6688C327.95 84.5502 320.035 83.5579 316.165 75.4336L314.699 72.6029L315.203 77.3224C315.203 77.3224 318.14 90.418 322.967 97.3587L331.99 90.6447L327.799 90.7504Z" fill="#51557E"/>
<path fill-rule="evenodd" clip-rule="evenodd" d="M392.025 63.2597C392.025 63.2597 391.395 69.9687 386.675 72.3863C381.982 75.016 377.049 77.1917 371.943 78.8838C377.591 77.3023 386.766 74.6428 389.295 73.3433C389.295 73.3433 389.179 81.5281 388.111 84.4998L382.896 86.4188H388.67C388.67 86.4188 395.592 75.3026 392.025 63.2496" fill="#D6D5A8"/>
</svg>
